<svg id="Layer_1" data-name="Layer 1" xmlns="http://www.w3.org/2000/svg" viewBox="0 0 60 60"><defs><style>.cls-1{fill:#811c85;}</style></defs><path class="cls-1" d="M40.74,30V43.62a3.23,3.23,0,0,1-3.51,3.55H22.75a3.25,3.25,0,0,1-3.49-3.5q0-13.7,0-27.39a3.19,3.19,0,0,1,3.44-3.44q7.34,0,14.67,0a3.15,3.15,0,0,1,3.37,3.38C40.75,20.8,40.74,25.39,40.74,30Zm-3.23-2.62v-9.9c0-1.23-.16-1.39-1.37-1.39H23.85c-1.18,0-1.32.13-1.32,1.31V37.26c0,1.17.12,1.29,1.34,1.29H36.16c1.21,0,1.34-.14,1.35-1.39ZM30,45a2.12,2.12,0,1,0,0-4.24A2.12,2.12,0,0,0,30,45Z"/></svg>