<svg id="Layer_1" data-name="Layer 1" xmlns="http://www.w3.org/2000/svg" viewBox="0 0 60 60"><defs><style>.cls-1{fill:#e80113;}</style></defs><path class="cls-1" d="M32.74,45.64a4.72,4.72,0,0,1-.1-.64q0-4.68,0-9.36V27.25c0-3.12,0-6.24,0-9.36,0-1,0-2.05,0-3.08,0-.32.07-.45.42-.45,1.48,0,3,0,4.44,0A8.11,8.11,0,0,1,45.23,20a9.45,9.45,0,0,1,.4,2.83c0,3.89,0,7.79,0,11.68,0,1.23,0,2.45,0,3.68a7.71,7.71,0,0,1-3,5.75,8,8,0,0,1-3.27,1.56,7.14,7.14,0,0,1-.93.09l-.53.08ZM42,31.58a3.2,3.2,0,1,0-3.2,3.21A3.19,3.19,0,0,0,42,31.58Z"/><path class="cls-1" d="M22.13,45.64a1.55,1.55,0,0,0-.36-.08,7.16,7.16,0,0,1-3.66-1.19,7.76,7.76,0,0,1-3.43-4.62,9.23,9.23,0,0,1-.3-2.35c0-4.87,0-9.75,0-14.62a8.49,8.49,0,0,1,1.42-4.87,8.15,8.15,0,0,1,3.8-3,8,8,0,0,1,3-.53c2.08,0,4.16,0,6.25,0,.55,0,.57,0,.57.59V28.55c0,5.45,0,10.91,0,16.36a3.76,3.76,0,0,1-.14.73ZM27,16.88l-.23,0H22.22a5.6,5.6,0,0,0-5.38,5.47c0,5.12,0,10.24,0,15.35a4.87,4.87,0,0,0,.5,2.24,5.39,5.39,0,0,0,4.75,3.23c1.46.06,2.93,0,4.4,0,.47,0,.47,0,.47-.47Q27,30,27,17.26C27,17.13,27,17,27,16.88Z"/><path class="cls-1" d="M25.1,23.81a2.88,2.88,0,0,1-2.92,2.87,2.91,2.91,0,0,1-2.92-2.87,2.92,2.92,0,1,1,5.84,0Z"/></svg>