<svg id="Layer_1" data-name="Layer 1" xmlns="http://www.w3.org/2000/svg" viewBox="0 0 60 60"><defs><style>.cls-1{fill:#fd9e10;}</style></defs><path class="cls-1" d="M27.32,38.69c-.44,0-.89-.06-1.33-.06-2.58,0-5.16,0-7.74,0a3.44,3.44,0,0,1-3.78-3.8q0-7.42,0-14.84c0-2.5,1.35-3.84,3.87-3.84q11.67,0,23.33,0c2.52,0,3.85,1.35,3.86,3.85q0,7.43,0,14.84c0,2.43-1.36,3.77-3.8,3.79s-5.15,0-7.73,0c-.44,0-.89,0-1.33.07.16,1.79.25,1.88,1.86,1.89.79,0,1.58-.05,2.37,0a1.54,1.54,0,0,1,1.62,1.67,1.48,1.48,0,0,1-1.6,1.56q-6.93.06-13.85,0a1.49,1.49,0,0,1-1.59-1.58c0-1.07.65-1.57,1.64-1.65.78-.07,1.58,0,2.37,0C27.08,40.58,27.19,40.48,27.32,38.69Zm2.55-6.84c3.71,0,7.41,0,11.11,0,1,0,1.49-.23,1.47-1.37-.06-3.24-.05-6.49,0-9.73,0-1-.28-1.38-1.34-1.38q-11.11.06-22.21,0c-1.06,0-1.36.38-1.35,1.38.05,3.24.06,6.48,0,9.73,0,1.13.42,1.39,1.47,1.37C22.64,31.82,26.26,31.85,29.87,31.85Z"/></svg>