<svg id="Layer_1" data-name="Layer 1" xmlns="http://www.w3.org/2000/svg" viewBox="0 0 60 60"><defs><style>.cls-1{fill:#0070d1;}</style></defs><path class="cls-1" d="M9.85,38.23a3.46,3.46,0,0,1,1.88-1.71c1.45-.64,2.92-1.22,4.4-1.77,2.21-.82,4.44-1.59,6.66-2.38l.51-.17V33c0,.88,0,1.76,0,2.64a.47.47,0,0,1-.37.53c-1.88.66-3.75,1.34-5.62,2a2.25,2.25,0,0,0-.66.32c-.18.16-.39.43-.37.62a.86.86,0,0,0,.49.54,4,4,0,0,0,2.47.12c1.21-.33,2.39-.76,3.59-1.15l.43-.16v3.27c-.51.06-1,.13-1.56.18a22.76,22.76,0,0,1-9.37-1.15,8.47,8.47,0,0,1-.87-.38A3,3,0,0,1,9.85,38.7Z"/><path class="cls-1" d="M25.29,14.39c1.57.46,3.08.85,4.56,1.32,2,.63,3.93,1.28,5.87,2a9.62,9.62,0,0,1,3.39,2.16,7.13,7.13,0,0,1,2.06,3.73A12.52,12.52,0,0,1,41.24,29a4.57,4.57,0,0,1-2.83,3.47,4.89,4.89,0,0,1-3.64-.25c-.11,0-.22-.1-.33-.13s-.32-.23-.32-.5q0-4.56,0-9.12a4.23,4.23,0,0,0-.11-1,1.44,1.44,0,0,0-1-1,1,1,0,0,0-1.38,1V45.61l-.39-.1c-1.86-.56-3.71-1.14-5.56-1.69a.42.42,0,0,1-.36-.49q0-14.23,0-28.48Z"/><path class="cls-1" d="M33.21,38.78c0-.1,0-.16,0-.22,0-1.07,0-2.15,0-3.22a.42.42,0,0,1,.22-.33,22.67,22.67,0,0,1,7.14-1.38,19.11,19.11,0,0,1,8,1.86,4,4,0,0,1,1.13.83,1.54,1.54,0,0,1,0,2.17,5,5,0,0,1-2.12,1.31L36.43,43.9l-3.22,1.16c0-.17,0-.29,0-.42,0-1,0-2,0-3a.45.45,0,0,1,.37-.53c2.46-.87,4.93-1.76,7.39-2.66.67-.24,1.34-.52,2-.8.3-.13.66-.28.64-.66s-.41-.48-.72-.57a5.72,5.72,0,0,0-3.47.2c-1.94.66-3.86,1.35-5.79,2Z"/></svg>